<?xml version="1.0" encoding="UTF-8" standalone="no"?>
<svg width="256px" height="256px" viewBox="0 0 256 256" version="1.1" xmlns="http://www.w3.org/2000/svg" xmlns:xlink="http://www.w3.org/1999/xlink">
    <!-- Generator: Sketch 3.8.3 (29802) - http://www.bohemiancoding.com/sketch -->
    <title>icon</title>
    <desc>Created with Sketch.</desc>
    <defs></defs>
    <g id="Icons" stroke="none" stroke-width="1" fill="none" fill-rule="evenodd">
        <g id="icon">
            <path d="M256,253 L48,253 C21.5,253 0,231.5 0,205 L0,45 C0,18.5 21.5,-3 48,-3 L208,-3 C234.5,-3 256,18.5 256,45 L256,253 L256,253 Z" id="Shape" fill="#4CBB41"></path>
            <g id="croudfunding" transform="translate(21.000000, 11.000000)">
                <g id="Layer_1">
                    <g id="Group">
                        <path d="M146.071749,22.0060399 L144.796075,25.203458 L121.700674,3.22120843 L115.131908,9.32104479 L115.131908,61.2029602 L88.9520426,36.2802279 L60.9633865,45.548934 L115.131908,97.1168173 L164.949812,155.307924 L69.9121405,64.828604 L37.1635089,74.0973101 L149.860689,181.382107 L110.371932,177.432915 L5.3287926,225.04209 L28.6129399,241.674364 C29.0346544,241.419153 232.833775,241.985247 241.999996,241.985247 C241.999996,235.29541 286.015029,120.56455 285.262953,114.074553 L178.820381,12.7373338 L170.661782,20.416847 L146.071749,22.0060399 Z" id="Shape" fill="#000000" opacity="0.1"></path>
                        <g transform="translate(0.892495, 0.594758)">
                            <g transform="translate(-0.000000, 85.058943)">
                                <path d="M209.438923,123.70963 L19.0399021,123.70963 L19.0399021,9.51612536 C19.0399021,4.26322416 23.3048402,0 28.5598531,0 L199.918972,0 C205.173985,0 209.438923,4.26322416 209.438923,9.51612536 L209.438923,123.70963 L209.438923,123.70963 Z" id="Shape" fill="#333333"></path>
                                <path d="M214.198899,142.74188 L14.2799266,142.74188 C6.39740711,142.74188 0,136.347044 0,128.467692 L0,123.70963 L228.478825,123.70963 L228.478825,128.467692 C228.478825,136.347044 222.081418,142.74188 214.198899,142.74188 L214.198899,142.74188 Z" id="Shape" fill="#C8CCD5"></path>
                                <rect id="Rectangle-path" fill="#FAB816" x="28.5598531" y="9.51612536" width="171.359119" height="104.677379"></rect>
                                <path d="M85.6795594,123.70963 C85.6795594,128.962531 89.9444975,133.225755 95.1995105,133.225755 L133.279315,133.225755 C138.534328,133.225755 142.799266,128.962531 142.799266,123.70963 L85.6795594,123.70963 L85.6795594,123.70963 Z" id="Shape" fill="#646464"></path>
                            </g>
                            <g transform="translate(33.175587, 0.000000)">
                                <polygon id="Shape" fill="#686072" points="140.56352 57.0967521 135.803544 57.0967521 135.803544 73.7499715 116.725562 73.7499715 117.1254 102.298348 83.4438134 102.298348 83.4438134 78.5080342 102.483715 78.5080342 102.483715 57.0967521 97.7237399 57.0967521 97.7237399 73.7499715 83.4438134 73.7499715 83.4438134 30.9274074 112.003667 30.9274074 112.003667 21.4112821 138.183532 21.4112821 138.183532 16.6532194 107.243691 16.6532194 107.243691 26.1693447 83.4438134 26.1693447 83.4438134 9.51612536 78.6838378 9.51612536 78.6838378 54.7177208 54.8839602 54.7177208 54.8839602 35.6854701 33.4640704 35.6854701 33.4640704 40.4435328 50.1239847 40.4435328 50.1239847 59.4757835 78.6838378 59.4757835 78.6838378 111.814473 35.8440581 111.814473 35.8440581 64.2338462 9.66419273 64.2338462 9.66419273 68.9919088 31.0840826 68.9919088 31.0840826 116.572536 78.6838378 116.572536 78.6838378 133.225755 83.4438134 133.225755 83.4438134 107.05641 121.961535 107.05641 121.561697 78.5080342 140.56352 78.5080342"></polygon>
                                <ellipse id="Oval" fill="#FFB202" cx="138.183532" cy="57.0967521" rx="9.51995105" ry="9.51612536"></ellipse>
                                <ellipse id="Oval" fill="#C1DD00" cx="138.183532" cy="19.0322507" rx="9.51995105" ry="9.51612536"></ellipse>
                                <ellipse id="Oval" fill="#F54F33" cx="81.0638256" cy="9.51612536" rx="9.51995105" ry="9.51612536"></ellipse>
                                <ellipse id="Oval" fill="#EB4A8D" cx="33.4640704" cy="38.0645014" rx="9.51995105" ry="9.51612536"></ellipse>
                                <ellipse id="Oval" fill="#00CAF7" cx="100.103728" cy="57.0967521" rx="9.51995105" ry="9.51612536"></ellipse>
                                <ellipse id="Oval" fill="#6B5BA1" cx="9.66419273" cy="66.6128775" rx="9.51995105" ry="9.51612536"></ellipse>
                            </g>
                        </g>
                    </g>
                </g>
                <g id="Group-2" transform="translate(56.724172, 123.543097)">
                    <rect id="Rectangle-path" fill="#ECEFF0" x="0" y="-5.68434189e-14" width="98.9402546" height="76.2517916"></rect>
                    <rect id="Rectangle-path" fill="#686072" x="0" y="-5.68434189e-14" width="98.9402546" height="23.8286849"></rect>
                    <path d="M8.89749271,15.7587036 C11.6274647,15.7587036 13.8405442,13.5538874 13.8405442,10.8341087 C13.8405442,8.11433007 11.6274647,5.90951385 8.89749271,5.90951385 C6.16752075,5.90951385 3.95444121,8.11433007 3.95444121,10.8341087 C3.95444121,13.5538874 6.16752075,15.7587036 8.89749271,15.7587036 Z" id="Oval" fill="#FFCD00"></path>
                    <path d="M46.7514019,13.4330119 L33.0096998,13.4330119 C32.2566546,13.4330119 31.6355296,12.3559554 31.6355296,11.0501434 L31.6355296,11.0501434 C31.6355296,9.74433151 32.2566546,8.66727495 33.0096998,8.66727495 L46.7514019,8.66727495 C47.5099438,8.66727495 48.1255721,9.74433151 48.1255721,11.0501434 L48.1255721,11.0501434 C48.1255721,12.3559554 47.5099438,13.4330119 46.7514019,13.4330119 L46.7514019,13.4330119 Z" id="Shape" fill="#ECEFF0"></path>
                    <path d="M68.5008285,13.4330119 L54.7591265,13.4330119 C54.0005845,13.4330119 53.3849563,12.3559554 53.3849563,11.0501434 L53.3849563,11.0501434 C53.3849563,9.74433151 54.0005845,8.66727495 54.7591265,8.66727495 L68.5008285,8.66727495 C69.2593704,8.66727495 69.8749987,9.74433151 69.8749987,11.0501434 L69.8749987,11.0501434 C69.8749987,12.3559554 69.2593704,13.4330119 68.5008285,13.4330119 L68.5008285,13.4330119 Z" id="Shape" fill="#ECEFF0"></path>
                    <path d="M90.2502551,13.4330119 L76.5085531,13.4330119 C75.7500111,13.4330119 75.1343829,12.3559554 75.1343829,11.0501434 L75.1343829,11.0501434 C75.1343829,9.74433151 75.7500111,8.66727495 76.5085531,8.66727495 L90.2502551,8.66727495 C91.0087971,8.66727495 91.6244253,9.74433151 91.6244253,11.0501434 L91.6244253,11.0501434 C91.6244253,12.3559554 91.0087971,13.4330119 90.2502551,13.4330119 L90.2502551,13.4330119 Z" id="Shape" fill="#ECEFF0"></path>
                    <rect id="Rectangle-path" fill="#65C6F2" x="0" y="23.8286849" width="98.9402546" height="52.4231067"></rect>
                    <polygon id="Shape" fill="#0071A0" points="5.49668081 76.2517916 32.9800849 38.5262177 60.4634889 76.2517916"></polygon>
                    <polygon id="Shape" fill="#1EA8DB" points="27.4834041 76.2517916 60.4634889 28.9947437 93.4435738 76.2517916"></polygon>
                </g>
            </g>
        </g>
    </g>
</svg>